<svg xmlns="http://www.w3.org/2000/svg" width="611.999" height="372" viewBox="0 0 611.999 372"><g id="Group_72711" data-name="Group 72711" transform="translate(-297 -48)"><rect id="Background" width="480" height="372" fill="#f4f6fc" rx="4" transform="translate(356 48)"/><g id="Rule" transform="translate(396 122)"><rect id="Placement_Area" width="400" height="2" fill="red" data-name="Placement Area" opacity="0"/><rect id="Bar" width="400" height="2" fill="#dae2f4" rx="1"/></g><g id="Rectangle_138301" fill="rgba(74,111,195,0.05)" stroke="#a2b6e1" stroke-dasharray="4 2" stroke-width="1" data-name="Rectangle 138301" transform="translate(396 140)"><rect width="400" height="168" stroke="none"/><rect width="399" height="167" x=".5" y=".5" fill="none"/></g><text id="Body_area" fill="#496ec2" data-name="Body area" font-family="Adobe-Clean" font-size="13" font-style="italic" transform="translate(596 229)"><tspan x="-25.818" y="0">Body area</tspan></text><g id="Rectangle_138302" fill="rgba(74,111,195,0.05)" stroke="#a2b6e1" stroke-dasharray="4 2" stroke-width="1" data-name="Rectangle 138302" transform="translate(608 348)"><rect width="188" height="32" stroke="none"/><rect width="187" height="31" x=".5" y=".5" fill="none"/></g><g id="Rectangle_138303" fill="none" stroke="#a2b6e1" stroke-dasharray="4 2" stroke-width="1" data-name="Rectangle 138303" transform="translate(570 88)"><rect width="226" height="22" stroke="none"/><rect width="225" height="21" x=".5" y=".5" fill="none"/></g><g id="Rectangle_138450" fill="rgba(74,111,195,0.05)" stroke="#a2b6e1" stroke-dasharray="4 2" stroke-width="1" data-name="Rectangle 138450" transform="translate(396 88)"><rect width="150" height="22" stroke="none"/><rect width="149" height="21" x=".5" y=".5" fill="none"/></g><g id="Rectangle_138449" fill="none" stroke="#a2b6e1" stroke-dasharray="4 2" stroke-width="1" data-name="Rectangle 138449" transform="translate(396 348)"><rect width="188" height="32" stroke="none"/><rect width="187" height="31" x=".5" y=".5" fill="none"/></g><text id="Title_area" fill="#496ec2" data-name="Title area" font-family="Adobe-Clean" font-size="13" font-style="italic" transform="translate(471 103)"><tspan x="-23.608" y="0">Title area</tspan></text><text id="Footer_content_area_optional_" fill="#496ec2" data-name="Footer content area (optional)" font-family="Adobe-Clean" font-size="13" font-style="italic" transform="translate(490 368)"><tspan x="-75.985" y="0">Footer content area (optional)</tspan></text><text id="Header_content_area_optional_" fill="#496ec2" data-name="Header content area (optional)" font-family="Adobe-Clean" font-size="13" font-style="italic" transform="translate(688 103)"><tspan x="-78.11" y="0">Header content area (optional)</tspan></text><text id="Button_group_area" fill="#496ec2" data-name="Button group area" font-family="Adobe-Clean" font-size="13" font-style="italic" transform="translate(702 368)"><tspan x="-46.169" y="0">Button group area</tspan></text><text id="Header" fill="#4a6fc3" font-family="Adobe-Clean" font-size="13" font-style="italic" transform="translate(870.999 103)"><tspan x="0" y="0">Header</tspan></text><text id="Footer" fill="#4a6fc3" font-family="Adobe-Clean" font-size="13" font-style="italic" transform="translate(869.999 368)"><tspan x="0" y="0">Footer</tspan></text><text id="Body" fill="#4a6fc3" font-family="Adobe-Clean" font-size="13" font-style="italic" transform="translate(869.999 228)"><tspan x="0" y="0">Body</tspan></text><rect id="Rectangle_138454" width="8" height="1" fill="#4a6fc3" data-name="Rectangle 138454" transform="translate(853 99)"/><rect id="Rectangle_138456" width="8" height="1" fill="#4a6fc3" data-name="Rectangle 138456" transform="translate(853 364)"/><rect id="Rectangle_138455" width="8" height="1" fill="#4a6fc3" data-name="Rectangle 138455" transform="translate(853 224)"/><g id="Group_72702" data-name="Group 72702" transform="translate(0 -494)"><rect id="Rectangle_138451" width="8" height="1" fill="#4a6fc3" data-name="Rectangle 138451" transform="translate(844 582)"/><rect id="Rectangle_138453" width="1" height="22" fill="#4a6fc3" data-name="Rectangle 138453" transform="translate(852 582)"/><rect id="Rectangle_138452" width="8" height="1" fill="#4a6fc3" data-name="Rectangle 138452" transform="translate(844 603)"/></g><g id="Group_72704" data-name="Group 72704" transform="translate(0 -234)"><rect id="Rectangle_138451-2" width="8" height="1" fill="#4a6fc3" data-name="Rectangle 138451" transform="translate(844 582)"/><rect id="Rectangle_138453-2" width="1" height="32" fill="#4a6fc3" data-name="Rectangle 138453" transform="translate(852 582)"/><rect id="Rectangle_138452-2" width="8" height="1" fill="#4a6fc3" data-name="Rectangle 138452" transform="translate(844 613)"/></g><g id="Group_72703" data-name="Group 72703" transform="translate(0 -442)"><rect id="Rectangle_138451-3" width="8" height="1" fill="#4a6fc3" data-name="Rectangle 138451" transform="translate(844 582)"/><rect id="Rectangle_138453-3" width="1" height="168" fill="#4a6fc3" data-name="Rectangle 138453" transform="translate(852 582)"/><rect id="Rectangle_138452-3" width="8" height="1" fill="#4a6fc3" data-name="Rectangle 138452" transform="translate(844 749)"/></g><text id="Divider" fill="#4a6fc3" font-family="Adobe-Clean" font-size="13" font-style="italic" transform="translate(334 126)"><tspan x="-36.14" y="0">Divider</tspan></text><path id="Union_58" fill="#718dcf" d="M-9114.949-372H-9168v-1h53.05a2.5,2.5,0,0,1,2.451-2,2.5,2.5,0,0,1,2.5,2.5,2.5,2.5,0,0,1-2.5,2.5A2.5,2.5,0,0,1-9114.949-372Z" data-name="Union 58" transform="translate(9508 495.501)"/></g></svg>